# xmcd
#
# Track frame offsets:
# 182
# 22757
# 46577
# 70452
# 91115
# 118297
# 139845
# 162965
# 181510
# 208215
#
# Disc length: 3140 seconds
#
#
# Revision: 1
# Processed by: cddbd v1.4PL0 Copyright (c) Steve Scherf et al.
# Submitted via: FreeRIP 2.30 
#
DISCID=7f0c420a
DTITLE=John Mayall's Bluesbreakers - Chicago Line
DYEAR=1900
DGENRE=
TTITLE0=Chicago Line
TTITLE1=Gimme One More Day
TTITLE2=One Life To Live
TTITLE3=The Last Time
TTITLE4=Dream About The Blues
TTITLE5=Fascinatin" Lover
TTITLE6=Cold Blooded Mama
TTITLE7=The Dirty Dozens
TTITLE8=Tears Came Rollin' Down
TTITLE9=Life In The Jungle
EXTD=
EXTT0=
EXTT1=
EXTT2=
EXTT3=
EXTT4=
EXTT5=
EXTT6=
EXTT7=
EXTT8=
EXTT9=
PLAYORDER=
